<?xml version="1.0" standalone="no"?>
<!DOCTYPE svg PUBLIC "-//W3C//DTD SVG 20010904//EN"
 "http://www.w3.org/TR/2001/REC-SVG-20010904/DTD/svg10.dtd">
<svg version="1.0" xmlns="http://www.w3.org/2000/svg"
 width="150.000000pt" height="150.000000pt" viewBox="0 0 150.000000 150.000000"
 preserveAspectRatio="xMidYMid meet">
<metadata>
Created by potrace 1.11, written by Peter Selinger 2001-2013
</metadata>
<g transform="translate(0.000000,150.000000) scale(0.100000,-0.100000)"
fill="#000000" stroke="none">
<path d="M648 1298 c-60 -34 -108 -65 -108 -69 0 -4 8 -17 18 -29 l18 -22 72
40 c39 22 73 38 76 34 2 -4 3 -42 2 -84 -1 -43 0 -78 3 -79 4 0 18 -2 34 -4
16 -2 27 1 28 8 1 7 2 46 3 87 1 50 5 74 12 73 6 -1 39 -18 72 -38 33 -19 65
-35 70 -35 9 0 35 50 29 56 -7 7 -212 124 -217 124 -3 0 -53 -28 -112 -62z"/>
<path d="M297 1097 l-107 -62 2 -130 3 -129 33 -1 32 -1 0 88 c0 84 5 99 26
79 11 -11 119 -71 128 -71 3 0 12 12 20 27 l14 28 -75 43 c-83 48 -83 45 -2
90 81 45 78 42 60 73 -9 16 -18 29 -21 29 -3 0 -53 -29 -113 -63z"/>
<path d="M1092 1140 c-14 -23 -16 -50 -3 -50 4 0 36 -17 70 -37 l62 -37 -23
-17 c-13 -10 -46 -30 -74 -45 l-52 -27 16 -32 17 -32 73 44 c41 23 75 43 77
43 3 0 6 -39 7 -87 l3 -88 30 0 30 0 3 130 3 130 -63 35 c-34 19 -67 37 -73
39 -5 2 -12 7 -15 10 -5 6 -66 41 -72 41 -2 0 -9 -9 -16 -20z"/>
<path d="M556 828 c-9 -12 -16 -26 -16 -29 0 -4 41 -31 90 -59 50 -28 91 -55
91 -58 1 -4 3 -47 4 -97 2 -49 3 -97 4 -105 1 -16 44 -20 58 -7 4 4 7 51 8
105 1 53 3 100 4 104 0 3 42 30 91 58 50 28 90 55 90 60 0 4 -8 18 -18 30
l-18 22 -86 -51 c-48 -28 -91 -51 -97 -51 -5 0 -48 23 -96 50 -48 28 -88 50
-90 50 -2 0 -11 -10 -19 -22z"/>
<path d="M203 633 c-10 -3 -13 -39 -13 -131 l0 -127 33 -19 c17 -10 57 -32 87
-48 30 -17 64 -37 75 -44 26 -19 28 -18 47 14 l17 29 -76 43 c-86 49 -87 44
18 102 l56 31 -14 28 c-8 16 -18 29 -21 29 -4 0 -38 -18 -76 -40 -37 -22 -70
-40 -72 -40 -2 0 -4 38 -4 85 0 47 -3 85 -7 86 -5 0 -15 2 -23 3 -8 2 -21 1
-27 -1z"/>
<path d="M1278 633 c-15 -4 -18 -17 -18 -89 0 -46 -2 -84 -4 -84 -2 0 -35 18
-72 40 -38 22 -72 40 -75 40 -4 0 -14 -11 -23 -24 -15 -24 -15 -25 30 -55 25
-17 48 -31 52 -31 4 0 18 -9 31 -19 l24 -18 -76 -43 c-78 -45 -78 -44 -49 -88
7 -11 33 0 121 50 l111 63 0 126 c0 107 -3 128 -16 133 -9 3 -16 5 -17 5 -1
-1 -10 -3 -19 -6z"/>
<path d="M726 320 c-1 -3 -2 -42 -1 -87 0 -46 0 -83 -1 -83 -4 0 -130 73 -140
80 -6 6 -17 -2 -28 -22 -15 -25 -16 -32 -5 -39 8 -5 58 -34 112 -65 l98 -56
97 56 c53 31 103 60 111 65 11 7 10 14 -5 39 -11 20 -22 28 -28 22 -10 -8
-136 -80 -140 -80 -1 0 -2 30 -1 68 1 101 -2 110 -37 108 -16 0 -31 -3 -32 -6z"/>
</g>
</svg>
